<svg width="175" height="175" viewBox="0 0 175 175" fill="none" xmlns="http://www.w3.org/2000/svg">
<path d="M87.5 175C39.2518 175 0 135.748 0 87.5C0 39.2518 39.2518 0 87.5 0C135.748 0 175 39.2518 175 87.5C175 135.748 135.748 175 87.5 175ZM55.1561 72.4575C52.052 75.5495 49.5867 79.2359 47.904 83.3018C46.2213 87.3678 45.3546 91.7321 45.3546 96.1404C45.3546 100.549 46.2213 104.913 47.904 108.979C49.5867 113.045 52.052 116.731 55.1561 119.823C61.4758 126.113 69.9827 129.64 78.8455 129.644C87.7084 129.648 96.2184 126.129 102.544 119.845C115.634 106.755 126.178 55.3502 122.903 52.076C119.629 48.8018 68.2465 59.3671 55.1561 72.4575ZM90.5684 107.87C87.4371 110.967 83.2303 112.698 78.852 112.69C74.4737 112.682 70.2733 110.935 67.1533 107.826C65.6224 106.3 64.4066 104.481 63.5767 102.475C62.7469 100.469 62.3195 98.3154 62.3195 96.1404C62.3195 93.9655 62.7469 91.8122 63.5767 89.806C64.4066 87.7998 65.6224 85.9807 67.1533 84.4547C70.2733 81.3454 74.4737 79.5991 78.852 79.591C83.2303 79.5828 87.4371 81.3135 90.5684 84.4111C92.1045 85.9432 93.3244 87.7691 94.157 89.7827C94.9897 91.7964 95.4185 93.9575 95.4185 96.1404C95.4185 98.3233 94.9897 100.484 94.157 102.498C93.3244 104.512 92.1045 106.338 90.5684 107.87Z" fill="url(#paint0_linear_1400_2)"/>
<defs>
<linearGradient id="paint0_linear_1400_2" x1="-27.2106" y1="104.187" x2="186.56" y2="88.2114" gradientUnits="userSpaceOnUse">
<stop stopColor="#3D5AF1"/>
<stop offset="1" stopColor="#B224EF"/>
</linearGradient>
</defs>
</svg>
