<svg width="235" height="39" viewBox="0 0 235 39" fill="none" xmlns="http://www.w3.org/2000/svg">
<path d="M59.021 31.0126C57.2365 31.0126 55.5857 30.7226 54.0688 30.1426C52.5742 29.5403 51.269 28.7037 50.1538 27.633C49.0606 26.5622 48.2018 25.3019 47.5771 23.8519C46.9748 22.4017 46.6738 20.818 46.6738 19.1003C46.6738 17.3826 46.9748 15.7987 47.5771 14.3487C48.2018 12.8987 49.0717 11.6382 50.1872 10.5675C51.3026 9.49669 52.6075 8.67133 54.1021 8.09134C55.6192 7.48902 57.27 7.18787 59.0546 7.18787C60.8391 7.18787 62.4677 7.46671 63.9399 8.0244C65.4346 8.58211 66.7062 9.42982 67.7547 10.5675L66.2154 12.1403C65.234 11.1586 64.1519 10.4559 62.9696 10.0321C61.7873 9.60821 60.5157 9.39628 59.155 9.39628C57.705 9.39628 56.3665 9.64176 55.1396 10.1325C53.9349 10.601 52.8752 11.2815 51.9606 12.1736C51.0684 13.0436 50.3658 14.0699 49.8526 15.2522C49.3619 16.4121 49.1164 17.6948 49.1164 19.1003C49.1164 20.4834 49.3619 21.7661 49.8526 22.9484C50.3658 24.1307 51.0684 25.168 51.9606 26.0603C52.8752 26.9303 53.9349 27.6107 55.1396 28.1015C56.3665 28.57 57.6939 28.8041 59.1215 28.8041C60.4599 28.8041 61.7204 28.6033 62.9027 28.2019C64.1074 27.8002 65.2115 27.12 66.2154 26.1608L67.6208 28.0346C66.5053 29.0161 65.2004 29.7634 63.7058 30.2766C62.2111 30.7673 60.6496 31.0126 59.021 31.0126ZM65.2451 27.7334V19.1003H67.6208V28.0346L65.2451 27.7334Z" fill="black"/>
<path d="M77.5033 17.8623H89.8841V19.9703H77.5033V17.8623ZM77.771 28.6704H91.8583V30.812H75.2949V7.38867H91.3565V9.53026H77.771V28.6704Z" fill="black"/>
<path d="M98.3477 30.812V7.38867H100.389L116.551 27.7334H115.48V7.38867H117.923V30.812H115.882L99.7532 10.4671H100.824V30.812H98.3477Z" fill="black"/>
<path d="M128.447 17.8623H140.828V19.9703H128.447V17.8623ZM128.714 28.6704H142.802V30.812H126.238V7.38867H142.3V9.53026H128.714V28.6704Z" fill="black"/>
<path d="M149.291 30.812V7.38867H158.058C160.043 7.38867 161.75 7.71213 163.178 8.35905C164.606 8.98377 165.698 9.89837 166.457 11.1029C167.238 12.2852 167.628 13.724 167.628 15.4195C167.628 17.0703 167.238 18.4979 166.457 19.7026C165.698 20.8849 164.606 21.7995 163.178 22.4464C161.75 23.0711 160.043 23.3834 158.058 23.3834H150.663L151.767 22.2458V30.812H149.291ZM165.286 30.812L159.263 22.3127H161.94L167.996 30.812H165.286ZM151.767 22.4464L150.663 21.2752H157.991C160.334 21.2752 162.107 20.7623 163.312 19.7361C164.538 18.7098 165.152 17.2711 165.152 15.4195C165.152 13.5457 164.538 12.0957 163.312 11.0696C162.107 10.0432 160.334 9.53026 157.991 9.53026H150.663L151.767 8.35905V22.4464Z" fill="black"/>
<path d="M170.396 30.812L181.104 7.38867H183.547L194.255 30.812H191.645L181.807 8.82759H182.811L172.973 30.812H170.396ZM174.613 24.5546L175.349 22.5468H188.968L189.704 24.5546H174.613Z" fill="black"/>
<path d="M202.172 30.812V9.53026H193.941V7.38867H212.88V9.53026H204.649V30.812H202.172Z" fill="black"/>
<path d="M219.713 17.8623H232.093V19.9703H219.713V17.8623ZM219.98 28.6704H234.066V30.812H217.504V7.38867H233.565V9.53026H219.98V28.6704Z" fill="black"/>
<path d="M19.0587 38.1174C8.54963 38.1174 0 29.5678 0 19.0587C0 8.54958 8.54963 0 19.0587 0C29.5678 0 38.1174 8.54958 38.1174 19.0587C38.1174 29.5678 29.5678 38.1174 19.0587 38.1174ZM12.0137 15.7821C11.3376 16.4556 10.8007 17.2587 10.4341 18.1443C10.0676 19.03 9.87894 19.9805 9.87894 20.9406C9.87894 21.901 10.0676 22.8515 10.4341 23.7371C10.8007 24.6228 11.3376 25.4256 12.0137 26.0991C13.3903 27.4691 15.2433 28.2374 17.1737 28.2382C19.104 28.2391 20.9576 27.4726 22.3355 26.1039C25.1867 23.2527 27.4833 12.056 26.77 11.3429C26.0568 10.6297 14.8651 12.9309 12.0137 15.7821ZM19.727 23.4956C19.045 24.1701 18.1286 24.5472 17.1751 24.5454C16.2215 24.5437 15.3064 24.1632 14.6268 23.486C14.2934 23.1536 14.0287 22.7574 13.8479 22.3205C13.6672 21.8835 13.5742 21.4144 13.5742 20.9406C13.5742 20.4669 13.6672 19.9979 13.8479 19.561C14.0287 19.124 14.2934 18.7278 14.6268 18.3955C15.3064 17.7181 16.2215 17.3378 17.1751 17.336C18.1286 17.3343 19.045 17.7111 19.727 18.3859C20.0617 18.7196 20.3273 19.1173 20.5087 19.556C20.6901 19.9944 20.7834 20.4651 20.7834 20.9406C20.7834 21.4161 20.6901 21.8868 20.5087 22.3255C20.3273 22.7642 20.0617 23.1619 19.727 23.4956Z" fill="url(#paint0_linear_1318_1035)"/>
<defs>
<linearGradient id="paint0_linear_1318_1035" x1="-5.92684" y1="22.6934" x2="40.6353" y2="19.2136" gradientUnits="userSpaceOnUse">
<stop stopColor="#3D5AF1"/>
<stop offset="1" stopColor="#B224EF"/>
</linearGradient>
</defs>
</svg>
